<svg width="45" height="40" viewBox="0 0 45 40" fill="none" xmlns="http://www.w3.org/2000/svg">
<path d="M13.2529 20H11.5304L8.69226 5H9.40201H42.0231C42.0264 5.00334 42.0299 5.00724 42.0332 5.01161C42.037 5.01646 42.0399 5.02102 42.0421 5.02495L37.8574 20H13.2529ZM12.4377 36.25C12.4377 35.5457 13.0024 35 13.6644 35C14.3264 35 14.891 35.5457 14.891 36.25C14.891 36.9543 14.3264 37.5 13.6644 37.5C13.0024 37.5 12.4377 36.9543 12.4377 36.25ZM37.2509 36.25C37.2509 36.9543 36.6862 37.5 36.0242 37.5C35.3622 37.5 34.7976 36.9543 34.7976 36.25C34.7976 35.5457 35.3622 35 36.0242 35C36.6862 35 37.2509 35.5457 37.2509 36.25Z" stroke="#FAFAFA" stroke-width="5"/>
</svg>
