<svg width="49" height="44" viewBox="0 0 49 44" fill="none" xmlns="http://www.w3.org/2000/svg">
<path d="M14.5782 22.25H12.4763L9.25974 5.25H10.3422H46.2709C46.2809 5.25 46.3559 5.25751 46.4349 5.36064C46.4699 5.40627 46.4883 5.45106 46.4956 5.48509C46.5018 5.51358 46.502 5.54024 46.4928 5.57428C46.4926 5.57474 46.4925 5.57519 46.4924 5.57565L41.8827 22.0717C41.8826 22.072 41.8826 22.0723 41.8825 22.0726C41.8502 22.1861 41.7528 22.25 41.6592 22.25H14.5782ZM13.4315 39.875C13.4315 38.9636 14.1631 38.25 15.0308 38.25C15.8985 38.25 16.6301 38.9636 16.6301 39.875C16.6301 40.7864 15.8985 41.5 15.0308 41.5C14.1631 41.5 13.4315 40.7864 13.4315 39.875ZM41.226 39.875C41.226 40.7864 40.4944 41.5 39.6266 41.5C38.7589 41.5 38.0273 40.7864 38.0273 39.875C38.0273 38.9636 38.7589 38.25 39.6266 38.25C40.4944 38.25 41.226 38.9636 41.226 39.875Z" stroke="#666666" stroke-width="5"/>
</svg>
