<svg width="40" height="40" viewBox="0 0 40 40" fill="none" xmlns="http://www.w3.org/2000/svg">
<path d="M20.0089 9.7445C14.3323 9.7445 9.75343 14.3233 9.75343 20C9.75343 25.6767 14.3323 30.2555 20.0089 30.2555C25.6856 30.2555 30.2644 25.6767 30.2644 20C30.2644 14.3233 25.6856 9.7445 20.0089 9.7445ZM20.0089 26.6674C16.3405 26.6674 13.3415 23.6773 13.3415 20C13.3415 16.3227 16.3316 13.3326 20.0089 13.3326C23.6863 13.3326 26.6763 16.3227 26.6763 20C26.6763 23.6773 23.6773 26.6674 20.0089 26.6674ZM33.076 9.325C33.076 10.6549 32.0049 11.7171 30.6839 11.7171C29.354 11.7171 28.2919 10.646 28.2919 9.325C28.2919 8.00402 29.3629 6.93295 30.6839 6.93295C32.0049 6.93295 33.076 8.00402 33.076 9.325ZM39.8684 11.7528C39.7166 8.54848 38.9847 5.71014 36.6373 3.37164C34.2988 1.03314 31.4605 0.301238 28.2562 0.140578C24.9537 -0.0468593 15.0552 -0.0468593 11.7528 0.140578C8.5574 0.292313 5.71907 1.02421 3.37164 3.36271C1.02421 5.70122 0.301238 8.53955 0.140578 11.7438C-0.0468593 15.0463 -0.0468593 24.9448 0.140578 28.2472C0.292313 31.4515 1.02421 34.2899 3.37164 36.6284C5.71907 38.9669 8.54848 39.6988 11.7528 39.8594C15.0552 40.0469 24.9537 40.0469 28.2562 39.8594C31.4605 39.7077 34.2988 38.9758 36.6373 36.6284C38.9758 34.2899 39.7077 31.4515 39.8684 28.2472C40.0558 24.9448 40.0558 15.0552 39.8684 11.7528ZM35.6019 31.7907C34.9057 33.5401 33.558 34.8879 31.7996 35.593C29.1666 36.6373 22.9187 36.3963 20.0089 36.3963C17.0992 36.3963 10.8424 36.6284 8.21823 35.593C6.46882 34.8968 5.12105 33.549 4.41593 31.7907C3.37164 29.1576 3.61263 22.9097 3.61263 20C3.61263 17.0903 3.38056 10.8334 4.41593 8.2093C5.11213 6.45989 6.45989 5.11213 8.21823 4.40701C10.8513 3.36271 17.0992 3.6037 20.0089 3.6037C22.9187 3.6037 29.1755 3.37164 31.7996 4.40701C33.549 5.1032 34.8968 6.45096 35.6019 8.2093C36.6462 10.8424 36.4052 17.0903 36.4052 20C36.4052 22.9097 36.6462 29.1666 35.6019 31.7907Z" fill="#6D133F"/>
</svg>
