<svg width="39" height="44" viewBox="0 0 39 44" fill="none" xmlns="http://www.w3.org/2000/svg">
<path d="M19.5 4.4V6.44319L21.5023 6.84996C26.6344 7.89255 30.5 12.4363 30.5 17.875V19.4906C30.5 24.153 32.2129 28.635 35.2971 32.1145L35.3019 32.1199L35.931 32.8255C35.9316 32.8262 35.9322 32.8269 35.9328 32.8275C36.0112 32.9176 36.016 33.0191 35.9814 33.0958C35.9363 33.1954 35.8437 33.25 35.75 33.25H2.74998C2.65239 33.25 2.56278 33.1926 2.52215 33.102C2.48396 33.0169 2.49323 32.9122 2.56751 32.8257C2.56842 32.8246 2.56935 32.8235 2.57028 32.8225L3.19628 32.122L3.20182 32.1157C6.29129 28.6346 7.99998 24.1517 7.99998 19.4906V17.875C7.99998 12.4231 11.8004 7.89293 16.9919 6.85113L19 6.44815V4.4V2.75C19 2.61067 19.1111 2.5 19.25 2.5C19.3888 2.5 19.5 2.61067 19.5 2.75V4.4ZM19.25 41.5C18.6488 41.5 18.0703 41.3229 17.5832 41H20.9053C20.4078 41.3178 19.804 41.5 19.25 41.5Z" stroke="#666666" stroke-width="5"/>
</svg>
