<svg width="255" height="30" viewBox="0 0 255 30" fill="none" xmlns="http://www.w3.org/2000/svg">
<path d="M22.04 8.64C22.04 10.2133 21.4 11.5733 20.12 12.72C18.84 13.84 17.0533 14.9067 14.76 15.92C13.9333 16.2933 13.0933 16.64 12.24 16.96C11.3867 17.28 10.8267 17.48 10.56 17.56C10.6933 20.8133 10.76 23.5867 10.76 25.88C10.76 26.6267 10.84 27.24 11 27.72C11.1867 28.1733 11.28 28.4667 11.28 28.6C11.28 28.8933 11.1333 29.1333 10.84 29.32C10.5467 29.5333 10.24 29.64 9.92 29.64C9.52 29.64 9.26667 29.36 9.16 28.8C9.16 28.7467 9.12 28.5067 9.04 28.08C8.98667 27.6533 8.96 27.0533 8.96 26.28C8.96 24.2 8.88 20.7867 8.72 16.04C8.64 13.64 8.6 11.9333 8.6 10.92C8.6 10.0667 8.61333 9.28 8.64 8.56C8.66667 7.81333 8.68 7.30667 8.68 7.04C7 7.49333 5.54667 7.96 4.32 8.44C3.92 8.62667 3.36 8.93333 2.64 9.36C2.32 9.54667 2 9.72 1.68 9.88C1.38667 10.04 1.16 10.12 1 10.12C0.786667 10.12 0.6 10.0267 0.44 9.84C0.28 9.65333 0.2 9.42667 0.2 9.16C0.2 8.81333 0.706667 8.38667 1.72 7.88C2.73333 7.34667 3.96 6.84 5.4 6.36C6.86667 5.88 8.21333 5.52 9.44 5.28C10.88 5.01333 12.48 4.88 14.24 4.88C16.6667 4.88 18.5733 5.2 19.96 5.84C21.3467 6.45333 22.04 7.38667 22.04 8.64ZM20.2 8.96C20.2 8.05333 19.6267 7.41333 18.48 7.04C17.3333 6.66666 15.92 6.48 14.24 6.48C13.0133 6.48 11.76 6.56 10.48 6.72C10.4533 6.93333 10.4133 7.42666 10.36 8.2C10.3333 8.97333 10.32 9.70667 10.32 10.4L10.36 13.32C10.3867 13.96 10.4 14.7733 10.4 15.76C10.96 15.7067 12.1467 15.3067 13.96 14.56C15.72 13.7867 17.2 12.9333 18.4 12C19.6 11.04 20.2 10.0267 20.2 8.96ZM38.9866 11.16C38.9866 11.4 38.8132 11.68 38.4666 12C38.1466 12.2933 37.8666 12.44 37.6266 12.44C37.4399 12.44 37.2532 12.36 37.0666 12.2C36.9066 12.04 36.7199 11.8133 36.5066 11.52C36.3199 11.2533 36.0666 11.0267 35.7466 10.84C35.4532 10.6533 35.1466 10.56 34.8266 10.56C34.0532 10.56 33.0132 11.5867 31.7066 13.64C30.3999 15.6667 29.1199 18.2267 27.8666 21.32C27.8932 21.9333 27.9332 22.7067 27.9866 23.64C28.0666 24.5733 28.1199 25.2667 28.1466 25.72L28.2666 27.32C28.2666 27.6933 28.1866 28.0133 28.0266 28.28C27.8666 28.5733 27.5732 28.72 27.1466 28.72C26.6932 28.72 26.3999 28.12 26.2666 26.92C26.1332 25.6933 26.0532 23.92 26.0266 21.6C25.9999 21.0133 25.9732 20.1733 25.9466 19.08C25.9466 17.9867 25.9199 16.68 25.8666 15.16C25.7866 12.8667 25.7466 11.2267 25.7466 10.24C25.7466 9.62667 26.1199 9.32 26.8666 9.32C27.3199 9.32 27.5866 9.52 27.6666 9.92C27.7732 10.2933 27.8266 11.0267 27.8266 12.12V18.48C28.6266 16.4267 29.4932 14.6533 30.4266 13.16C31.3599 11.6667 32.2666 10.5333 33.1466 9.76C34.0532 8.96 34.8532 8.56 35.5466 8.56C36.1332 8.56 36.6932 8.69333 37.2266 8.96C37.7599 9.22667 38.1866 9.57333 38.5066 10C38.8266 10.4 38.9866 10.7867 38.9866 11.16ZM56.9491 17.8C57.1357 17.8 57.2291 18 57.2291 18.4C57.2291 18.88 56.8691 19.9333 56.1491 21.56C55.4557 23.1867 54.3891 24.6933 52.9491 26.08C51.5357 27.4667 49.7891 28.16 47.7091 28.16C46.0024 28.16 44.5757 27.6267 43.4291 26.56C42.2824 25.4933 41.7091 23.8533 41.7091 21.64C41.7091 19.56 42.1891 17.5067 43.1491 15.48C44.1091 13.4267 45.3624 11.76 46.9091 10.48C48.4557 9.17333 50.0557 8.52 51.7091 8.52C52.6957 8.52 53.5224 8.74667 54.1891 9.2C54.8824 9.62667 55.2291 10.2533 55.2291 11.08C55.2291 12.0133 54.6957 12.92 53.6291 13.8C52.5891 14.68 51.2291 15.4533 49.5491 16.12C47.8691 16.7867 46.1357 17.2667 44.3491 17.56C44.0291 18.7867 43.8691 19.9867 43.8691 21.16C43.8691 22.7067 44.2291 23.9067 44.9491 24.76C45.6957 25.6133 46.7491 26.04 48.1091 26.04C50.1624 26.04 51.8291 25.3067 53.1091 23.84C54.3891 22.3733 55.4557 20.72 56.3091 18.88C56.3624 18.7733 56.4557 18.5733 56.5891 18.28C56.7224 17.96 56.8424 17.8 56.9491 17.8ZM53.4291 11.52C53.4291 11.0933 53.2024 10.76 52.7491 10.52C52.3224 10.28 51.8157 10.16 51.2291 10.16C50.2157 10.16 49.2424 10.4933 48.3091 11.16C47.3757 11.8267 46.5891 12.6267 45.9491 13.56C45.3357 14.4933 44.9357 15.32 44.7491 16.04C45.9757 15.9067 47.2691 15.56 48.6291 15C49.9891 14.44 51.1224 13.8267 52.0291 13.16C52.9624 12.4933 53.4291 11.9467 53.4291 11.52ZM85.6238 27.6C85.6238 27.92 85.5171 28.1867 85.3038 28.4C85.0904 28.64 84.8104 28.76 84.4638 28.76C83.9838 28.76 83.7438 28.52 83.7438 28.04C83.7438 22.6533 83.5704 18.5333 83.2238 15.68C82.8771 12.8 82.2771 11.36 81.4238 11.36C79.9838 11.36 77.8771 16.3867 75.1038 26.44V26.48C75.1038 26.8 74.9971 27.08 74.7838 27.32C74.5704 27.5333 74.2904 27.64 73.9438 27.64C73.4638 27.64 73.2238 27.4 73.2238 26.92C73.2238 25.8533 73.2771 24.2 73.3838 21.96C73.4904 19.4533 73.5438 17.48 73.5438 16.04C73.5438 14.04 73.4771 12.6267 73.3438 11.8C73.2371 10.9467 72.9838 10.52 72.5838 10.52C71.6771 10.52 70.5304 12.1867 69.1438 15.52C67.7571 18.8267 66.3038 22.7333 64.7838 27.24L64.4238 28.28C64.3171 28.5467 64.1571 28.7733 63.9438 28.96C63.7571 29.1467 63.5438 29.24 63.3038 29.24C62.9838 29.24 62.7704 29.2133 62.6638 29.16C62.5571 29.1067 62.4904 28.9467 62.4638 28.68C62.3304 27.3733 62.2238 25.6267 62.1438 23.44C62.0904 22.88 62.0371 21.96 61.9838 20.68C61.7171 16.1733 61.4771 13.1333 61.2638 11.56C61.0504 9.96 60.9438 9.06667 60.9438 8.88C60.9438 8.66667 61.0504 8.41333 61.2638 8.12C61.4771 7.82667 61.6771 7.68 61.8638 7.68C62.2904 7.68 62.6371 7.98667 62.9038 8.6C63.0371 8.89333 63.1838 10.0667 63.3438 12.12C63.5038 14.1733 63.6371 16.72 63.7438 19.76L63.9438 25.88C65.4104 21.3467 66.9304 17.24 68.5038 13.56C70.0771 9.85333 71.5171 8 72.8238 8C73.7038 8 74.3038 8.64 74.6238 9.92C74.9438 11.2 75.1038 13.0533 75.1038 15.48C75.1038 16.76 75.0771 18.6 75.0238 21L74.9838 22.84C76.0771 19.0267 77.1571 15.8267 78.2238 13.24C79.3171 10.6533 80.4104 9.36 81.5038 9.36C84.2504 9.36 85.6238 15.44 85.6238 27.6ZM92.9847 2.96C92.9847 3.36 92.5447 3.56 91.6647 3.56C91.2114 3.56 90.7447 3.37333 90.2647 3C89.8114 2.62667 89.5847 2.32 89.5847 2.08C89.5847 1.78667 89.718 1.50667 89.9847 1.24C90.278 0.973332 90.5714 0.839999 90.8647 0.839999C90.8647 0.839999 90.958 0.879999 91.1447 0.959998C91.358 1.01333 91.598 1.18667 91.8647 1.48C92.078 1.69333 92.318 1.97333 92.5847 2.32C92.8514 2.66667 92.9847 2.88 92.9847 2.96ZM93.9847 28.12C93.9847 28.3867 93.8647 28.5867 93.6247 28.72C93.4114 28.88 93.158 28.9467 92.8647 28.92C92.4914 28.8933 92.2114 28.2933 92.0247 27.12C91.8647 25.9467 91.6914 23.72 91.5047 20.44C91.398 18.28 91.3047 16.1733 91.2247 14.12C91.1447 12.04 91.0914 10.44 91.0647 9.32C91.0647 9.02667 91.1047 8.81333 91.1847 8.68C91.2914 8.52 91.478 8.44 91.7447 8.44C92.358 8.44 92.7447 8.69333 92.9047 9.2C93.0647 9.70667 93.1447 10.68 93.1447 12.12L93.1047 16.84C93.1047 19.5333 93.1847 21.6933 93.3447 23.32C93.3447 23.4 93.4647 24.2533 93.7047 25.88C93.8914 27 93.9847 27.7467 93.9847 28.12ZM114.176 17.8C114.362 17.8 114.456 18 114.456 18.4C114.456 18.88 114.096 19.9333 113.376 21.56C112.682 23.1867 111.616 24.6933 110.176 26.08C108.762 27.4667 107.016 28.16 104.936 28.16C103.229 28.16 101.802 27.6267 100.656 26.56C99.509 25.4933 98.9356 23.8533 98.9356 21.64C98.9356 19.56 99.4156 17.5067 100.376 15.48C101.336 13.4267 102.589 11.76 104.136 10.48C105.682 9.17333 107.282 8.52 108.936 8.52C109.922 8.52 110.749 8.74667 111.416 9.2C112.109 9.62667 112.456 10.2533 112.456 11.08C112.456 12.0133 111.922 12.92 110.856 13.8C109.816 14.68 108.456 15.4533 106.776 16.12C105.096 16.7867 103.362 17.2667 101.576 17.56C101.256 18.7867 101.096 19.9867 101.096 21.16C101.096 22.7067 101.456 23.9067 102.176 24.76C102.922 25.6133 103.976 26.04 105.336 26.04C107.389 26.04 109.056 25.3067 110.336 23.84C111.616 22.3733 112.682 20.72 113.536 18.88C113.589 18.7733 113.682 18.5733 113.816 18.28C113.949 17.96 114.069 17.8 114.176 17.8ZM110.656 11.52C110.656 11.0933 110.429 10.76 109.976 10.52C109.549 10.28 109.042 10.16 108.456 10.16C107.442 10.16 106.469 10.4933 105.536 11.16C104.602 11.8267 103.816 12.6267 103.176 13.56C102.562 14.4933 102.162 15.32 101.976 16.04C103.202 15.9067 104.496 15.56 105.856 15C107.216 14.44 108.349 13.8267 109.256 13.16C110.189 12.4933 110.656 11.9467 110.656 11.52ZM131.33 11.16C131.33 11.4 131.157 11.68 130.81 12C130.49 12.2933 130.21 12.44 129.97 12.44C129.784 12.44 129.597 12.36 129.41 12.2C129.25 12.04 129.064 11.8133 128.85 11.52C128.664 11.2533 128.41 11.0267 128.09 10.84C127.797 10.6533 127.49 10.56 127.17 10.56C126.397 10.56 125.357 11.5867 124.05 13.64C122.744 15.6667 121.464 18.2267 120.21 21.32C120.237 21.9333 120.277 22.7067 120.33 23.64C120.41 24.5733 120.464 25.2667 120.49 25.72L120.61 27.32C120.61 27.6933 120.53 28.0133 120.37 28.28C120.21 28.5733 119.917 28.72 119.49 28.72C119.037 28.72 118.744 28.12 118.61 26.92C118.477 25.6933 118.397 23.92 118.37 21.6C118.344 21.0133 118.317 20.1733 118.29 19.08C118.29 17.9867 118.264 16.68 118.21 15.16C118.13 12.8667 118.09 11.2267 118.09 10.24C118.09 9.62667 118.464 9.32 119.21 9.32C119.664 9.32 119.93 9.52 120.01 9.92C120.117 10.2933 120.17 11.0267 120.17 12.12V18.48C120.97 16.4267 121.837 14.6533 122.77 13.16C123.704 11.6667 124.61 10.5333 125.49 9.76C126.397 8.96 127.197 8.56 127.89 8.56C128.477 8.56 129.037 8.69333 129.57 8.96C130.104 9.22667 130.53 9.57333 130.85 10C131.17 10.4 131.33 10.7867 131.33 11.16ZM164.057 21C164.057 22.3333 163.604 23.6533 162.697 24.96C161.817 26.24 160.564 27.28 158.937 28.08C157.337 28.9067 155.511 29.32 153.457 29.32C151.724 29.32 150.351 29.1733 149.337 28.88C148.324 28.6133 147.817 28.2267 147.817 27.72C147.817 27.4533 148.004 27.0133 148.377 26.4C148.777 25.76 149.084 25.44 149.297 25.44C149.617 25.44 149.777 25.5067 149.777 25.64C149.777 25.72 149.724 25.8133 149.617 25.92C149.537 26.0267 149.497 26.1333 149.497 26.24C149.497 26.32 149.657 26.44 149.977 26.6C150.324 26.76 150.844 26.9067 151.537 27.04C152.231 27.1733 153.071 27.24 154.057 27.24C155.631 27.24 157.004 26.9333 158.177 26.32C159.377 25.7067 160.297 24.9333 160.937 24C161.577 23.0667 161.897 22.16 161.897 21.28C161.897 20.1333 161.337 19.1467 160.217 18.32C159.124 17.4933 157.351 16.7067 154.897 15.96C152.524 15.1867 150.684 14.5467 149.377 14.04C148.097 13.5067 147.057 12.8667 146.257 12.12C145.457 11.3467 145.057 10.4133 145.057 9.32C145.057 7.85333 145.884 6.41333 147.537 5C149.191 3.56 151.231 2.4 153.657 1.52C156.084 0.613331 158.337 0.159998 160.417 0.159998C161.484 0.159998 162.057 0.373332 162.137 0.8C162.217 1.22667 162.257 1.70667 162.257 2.24C162.257 2.64 162.111 2.84 161.817 2.84C161.684 2.84 161.524 2.8 161.337 2.72C161.177 2.61333 161.031 2.53333 160.897 2.48C160.737 2.42667 160.551 2.37333 160.337 2.32C160.124 2.26666 159.817 2.24 159.417 2.24C158.031 2.24 156.364 2.6 154.417 3.32C152.471 4.04 150.777 4.93333 149.337 6C147.924 7.06667 147.217 8.09333 147.217 9.08C147.217 9.88 147.537 10.5733 148.177 11.16C148.844 11.7467 149.724 12.2533 150.817 12.68C151.911 13.08 153.457 13.5867 155.457 14.2C158.391 15.0533 160.551 16.0133 161.937 17.08C163.351 18.1467 164.057 19.4533 164.057 21ZM185.369 11.44C185.369 11.8933 185.169 12.24 184.769 12.48C184.396 12.72 183.703 12.9067 182.689 13.04C180.236 13.4667 178.863 13.7067 178.569 13.76L175.969 14.2C175.969 15.5867 175.983 17.04 176.009 18.56C176.063 20.08 176.129 21.4133 176.209 22.56C176.316 24.1067 176.503 25.2933 176.769 26.12C177.036 26.9467 177.183 27.4133 177.209 27.52C177.209 27.7867 177.036 28.0267 176.689 28.24C176.369 28.48 176.063 28.6 175.769 28.6C175.609 28.6 175.476 28.5467 175.369 28.44C175.263 28.36 175.169 28.2133 175.089 28C174.929 27.6267 174.769 26.9333 174.609 25.92C174.476 24.9067 174.369 23.7867 174.289 22.56C174.209 21.4667 174.143 20.2 174.089 18.76C174.063 17.2933 174.049 15.88 174.049 14.52C172.556 14.76 171.023 15.0533 169.449 15.4C168.036 15.6933 167.196 15.84 166.929 15.84C166.609 15.84 166.303 15.7467 166.009 15.56C165.743 15.3733 165.609 15.12 165.609 14.8C165.609 14.4533 165.729 14.2267 165.969 14.12C166.209 14.0133 166.609 13.96 167.169 13.96C167.569 13.96 168.156 13.8933 168.929 13.76C169.703 13.6 170.196 13.4933 170.409 13.44C172.196 13.0933 173.409 12.8667 174.049 12.76C174.049 12.2 174.023 11.4667 173.969 10.56C173.916 9.33333 173.889 8.4 173.889 7.76C173.889 6.72 173.916 5.92 173.969 5.36C174.049 4.77333 174.183 4.25333 174.369 3.8C174.583 3.26667 174.983 3 175.569 3C175.809 3 175.969 3.04 176.049 3.12C176.129 3.2 176.169 3.34667 176.169 3.56C176.169 3.72 176.103 4.18667 175.969 4.96C175.836 5.73333 175.769 6.76 175.769 8.04C175.769 9.02667 175.796 10.1333 175.849 11.36L175.889 12.44C177.089 12.2533 179.463 11.76 183.009 10.96C183.223 10.9067 183.396 10.72 183.529 10.4C183.689 10.08 183.849 9.92 184.009 9.92C184.303 9.92 184.596 10.0933 184.889 10.44C185.209 10.76 185.369 11.0933 185.369 11.44ZM201.295 19.72C201.295 20.76 200.908 21.96 200.135 23.32C199.362 24.68 198.268 25.8533 196.855 26.84C195.442 27.8 193.828 28.28 192.015 28.28C190.228 28.28 188.908 27.7867 188.055 26.8C187.202 25.8133 186.775 24.5867 186.775 23.12C186.775 21.84 187.002 20.2533 187.455 18.36C187.935 16.4667 188.602 14.7733 189.455 13.28C189.508 13.1733 189.722 12.7867 190.095 12.12C190.495 11.4267 190.935 10.9067 191.415 10.56C191.895 10.1867 192.402 10 192.935 10C193.175 10 193.388 10.0667 193.575 10.2C193.788 10.3067 193.895 10.4533 193.895 10.64C193.895 10.6933 193.815 10.8267 193.655 11.04C193.522 11.2267 193.415 11.3733 193.335 11.48C192.428 12.5733 191.695 13.6533 191.135 14.72C190.388 16.08 189.802 17.4267 189.375 18.76C188.975 20.0933 188.775 21.5467 188.775 23.12C188.775 25.2267 190.055 26.28 192.615 26.28C193.815 26.28 194.922 25.9333 195.935 25.24C196.975 24.5467 197.802 23.7067 198.415 22.72C199.028 21.7067 199.335 20.7867 199.335 19.96C199.335 19.0267 199.028 18.2133 198.415 17.52C197.802 16.8267 196.962 16.0933 195.895 15.32C195.202 14.8133 194.695 14.4 194.375 14.08C194.055 13.76 193.895 13.4933 193.895 13.28C193.895 12.96 194.122 12.7067 194.575 12.52C195.028 12.3067 195.562 12.2 196.175 12.2C196.522 12.2 196.748 12.2267 196.855 12.28C196.962 12.3067 197.015 12.3733 197.015 12.48C197.015 12.5333 196.962 12.6267 196.855 12.76C196.775 12.8667 196.735 12.96 196.735 13.04C196.735 13.12 197.002 13.3867 197.535 13.84C198.602 14.72 199.495 15.6133 200.215 16.52C200.935 17.4267 201.295 18.4933 201.295 19.72ZM218.244 11.16C218.244 11.4 218.071 11.68 217.724 12C217.404 12.2933 217.124 12.44 216.884 12.44C216.698 12.44 216.511 12.36 216.324 12.2C216.164 12.04 215.978 11.8133 215.764 11.52C215.578 11.2533 215.324 11.0267 215.004 10.84C214.711 10.6533 214.404 10.56 214.084 10.56C213.311 10.56 212.271 11.5867 210.964 13.64C209.658 15.6667 208.378 18.2267 207.124 21.32C207.151 21.9333 207.191 22.7067 207.244 23.64C207.324 24.5733 207.378 25.2667 207.404 25.72L207.524 27.32C207.524 27.6933 207.444 28.0133 207.284 28.28C207.124 28.5733 206.831 28.72 206.404 28.72C205.951 28.72 205.658 28.12 205.524 26.92C205.391 25.6933 205.311 23.92 205.284 21.6C205.258 21.0133 205.231 20.1733 205.204 19.08C205.204 17.9867 205.178 16.68 205.124 15.16C205.044 12.8667 205.004 11.2267 205.004 10.24C205.004 9.62667 205.378 9.32 206.124 9.32C206.578 9.32 206.844 9.52 206.924 9.92C207.031 10.2933 207.084 11.0267 207.084 12.12V18.48C207.884 16.4267 208.751 14.6533 209.684 13.16C210.618 11.6667 211.524 10.5333 212.404 9.76C213.311 8.96 214.111 8.56 214.804 8.56C215.391 8.56 215.951 8.69333 216.484 8.96C217.018 9.22667 217.444 9.57333 217.764 10C218.084 10.4 218.244 10.7867 218.244 11.16ZM236.207 17.8C236.394 17.8 236.487 18 236.487 18.4C236.487 18.88 236.127 19.9333 235.407 21.56C234.714 23.1867 233.647 24.6933 232.207 26.08C230.794 27.4667 229.047 28.16 226.967 28.16C225.26 28.16 223.834 27.6267 222.687 26.56C221.54 25.4933 220.967 23.8533 220.967 21.64C220.967 19.56 221.447 17.5067 222.407 15.48C223.367 13.4267 224.62 11.76 226.167 10.48C227.714 9.17333 229.314 8.52 230.967 8.52C231.954 8.52 232.78 8.74667 233.447 9.2C234.14 9.62667 234.487 10.2533 234.487 11.08C234.487 12.0133 233.954 12.92 232.887 13.8C231.847 14.68 230.487 15.4533 228.807 16.12C227.127 16.7867 225.394 17.2667 223.607 17.56C223.287 18.7867 223.127 19.9867 223.127 21.16C223.127 22.7067 223.487 23.9067 224.207 24.76C224.954 25.6133 226.007 26.04 227.367 26.04C229.42 26.04 231.087 25.3067 232.367 23.84C233.647 22.3733 234.714 20.72 235.567 18.88C235.62 18.7733 235.714 18.5733 235.847 18.28C235.98 17.96 236.1 17.8 236.207 17.8ZM232.687 11.52C232.687 11.0933 232.46 10.76 232.007 10.52C231.58 10.28 231.074 10.16 230.487 10.16C229.474 10.16 228.5 10.4933 227.567 11.16C226.634 11.8267 225.847 12.6267 225.207 13.56C224.594 14.4933 224.194 15.32 224.007 16.04C225.234 15.9067 226.527 15.56 227.887 15C229.247 14.44 230.38 13.8267 231.287 13.16C232.22 12.4933 232.687 11.9467 232.687 11.52ZM254.042 22.4C254.042 23.5733 253.562 24.7067 252.602 25.8C251.668 26.8667 250.428 27.72 248.882 28.36C247.335 29.0267 245.722 29.36 244.042 29.36C242.895 29.36 242.122 29.2533 241.722 29.04C241.322 28.8267 241.122 28.5333 241.122 28.16C241.122 27.92 241.428 27.5067 242.042 26.92C242.655 26.3067 243.068 26 243.282 26C243.602 26 243.762 26.0667 243.762 26.2C243.762 26.3067 243.695 26.4133 243.562 26.52C243.428 26.6267 243.362 26.72 243.362 26.8C243.362 26.9067 243.522 27.0133 243.842 27.12C244.188 27.2267 244.602 27.28 245.082 27.28C246.202 27.28 247.322 27.08 248.442 26.68C249.588 26.2533 250.522 25.7067 251.242 25.04C251.962 24.3733 252.322 23.6667 252.322 22.92C252.322 22.2 252.095 21.6267 251.642 21.2C251.188 20.7733 250.615 20.4667 249.922 20.28C249.255 20.0667 248.122 19.7733 246.522 19.4C244.762 19 243.388 18.6533 242.402 18.36C241.442 18.04 240.668 17.6533 240.082 17.2C239.495 16.72 239.202 16.12 239.202 15.4C239.202 14.12 239.828 12.9467 241.082 11.88C242.335 10.8133 243.775 9.97333 245.402 9.36C247.028 8.74667 248.282 8.44 249.162 8.44C250.068 8.44 250.522 8.70667 250.522 9.24C250.522 9.56 250.415 9.92 250.202 10.32C249.988 10.6933 249.668 10.88 249.242 10.88C249.082 10.88 248.908 10.8267 248.722 10.72C248.535 10.5867 248.348 10.52 248.162 10.52C247.628 10.52 246.788 10.6933 245.642 11.04C244.495 11.3867 243.455 11.9067 242.522 12.6C241.588 13.2933 241.122 14.1333 241.122 15.12C241.122 15.76 241.482 16.24 242.202 16.56C242.948 16.8533 244.322 17.2267 246.322 17.68C246.562 17.76 246.802 17.8267 247.042 17.88C247.282 17.9067 247.495 17.9467 247.682 18C249.735 18.48 251.308 19.0267 252.402 19.64C253.495 20.2533 254.042 21.1733 254.042 22.4Z" fill="#1E1E1E"/>
</svg>
