<svg width="30" height="30" viewBox="0 0 30 30" fill="none" xmlns="http://www.w3.org/2000/svg">
<path fill-rule="evenodd" clip-rule="evenodd" d="M25.9918 29.3044C26.9068 30.2194 28.3905 30.2194 29.3055 29.3044C30.2193 28.3906 30.2193 26.9028 29.3037 25.9925L22.2921 18.9809C23.8868 16.6144 24.6733 13.6563 24.2521 10.5049C23.5375 5.14335 19.1407 0.781152 13.7727 0.101664C5.79989 -0.911711 -0.908882 5.79531 0.100978 13.7734C0.780467 19.1402 5.14149 23.5364 10.5042 24.2528C13.6556 24.6739 16.6131 23.8873 18.9802 22.2928L25.9918 29.3044ZM12.1836 20.7347C16.9068 20.7347 20.7357 16.9057 20.7357 12.1825C20.7357 7.45926 16.9068 3.63032 12.1836 3.63032C7.46033 3.63032 3.63139 7.45926 3.63139 12.1825C3.63139 16.9057 7.46033 20.7347 12.1836 20.7347Z" fill="#FAFAFA"/>
</svg>
